<svg width="16" height="16" viewBox="0 0 16 16" fill="none" xmlns="http://www.w3.org/2000/svg">
<path d="M12.8 13.6H2.4L0 16V2.4C0 1.08 1.08 0 2.4 0H12.8C14.12 0 15.2 1.08 15.2 2.4V11.2C15.2 12.52 14.12 13.6 12.8 13.6Z" fill="#969696"/>
<path d="M6.80005 5.59985H8.40005V9.99985H6.80005V5.59985Z" fill="white"/>
<path d="M7.60005 4.40005C8.04188 4.40005 8.40005 4.04188 8.40005 3.60005C8.40005 3.15822 8.04188 2.80005 7.60005 2.80005C7.15822 2.80005 6.80005 3.15822 6.80005 3.60005C6.80005 4.04188 7.15822 4.40005 7.60005 4.40005Z" fill="white"/>
</svg>
