<svg width="24" height="24" viewBox="0 0 24 24" fill="none" xmlns="http://www.w3.org/2000/svg">
<path d="M9.52 0.00016696C9.45208 -0.00157646 9.3845 0.010349 9.32128 0.035235C9.25806 0.060121 9.20049 0.0974596 9.15198 0.145033C9.10348 0.192606 9.06503 0.249444 9.03892 0.312169C9.01281 0.374894 8.99958 0.442226 9 0.510167V2.49017C9 2.77017 9.22 2.99017 9.5 2.99017V3.01017C15.73 3.25017 20.74 8.26017 20.98 14.4902H21C21 14.7702 21.22 14.9902 21.5 14.9902H23.48C23.77 14.9902 24 14.7502 23.99 14.4702C23.72 6.61017 17.38 0.270167 9.52 0.00016696V0.00016696ZM9.52 5.00017C9.45233 4.99937 9.38517 5.01195 9.32238 5.03718C9.25959 5.06241 9.20239 5.09978 9.15408 5.14717C9.10576 5.19455 9.06728 5.25101 9.04084 5.3133C9.0144 5.3756 9.00052 5.4425 9 5.51017V7.49017C9 7.77017 9.22 7.99017 9.5 7.99017V8.02017C12.97 8.25017 15.74 11.0202 15.97 14.4902H16C16 14.7702 16.22 14.9902 16.5 14.9902H18.48C18.76 14.9902 19 14.7502 18.99 14.4702C18.72 9.37017 14.62 5.27017 9.52 5.00017V5.00017ZM0.5 5.99017C0.22 5.99017 0 6.21017 0 6.49017V17.4902C0 21.0702 2.92 23.9902 6.5 23.9902C10.08 23.9902 13 21.0702 13 17.4902C13 13.9102 10.08 10.9902 6.5 10.9902C6.22 10.9902 6 11.2102 6 11.4902V14.4902C6 14.7702 6.22 14.9902 6.5 14.9902C7.16304 14.9902 7.79893 15.2536 8.26777 15.7224C8.73661 16.1912 9 16.8271 9 17.4902C9 18.1532 8.73661 18.7891 8.26777 19.2579C7.79893 19.7268 7.16304 19.9902 6.5 19.9902C6.1717 19.9902 5.84661 19.9255 5.54329 19.7999C5.23998 19.6742 4.96438 19.4901 4.73223 19.2579C4.50009 19.0258 4.31594 18.7502 4.1903 18.4469C4.06466 18.1436 4 17.8185 4 17.4902V6.49017C4 6.21017 3.78 5.99017 3.5 5.99017H0.5Z" fill="#B0B0B0"/>
</svg>
