<svg width="16" height="16" viewBox="0 0 16 16" fill="none" xmlns="http://www.w3.org/2000/svg">
<path d="M7.15752 2.99937H9.65992L12.4042 0.246735C12.4818 0.168553 12.574 0.106498 12.6757 0.0641506C12.7773 0.0218028 12.8863 0 12.9965 0C13.1066 0 13.2156 0.0218028 13.3172 0.0641506C13.4189 0.106498 13.5111 0.168553 13.5887 0.246735L15.7408 2.40714C15.8961 2.56342 15.9833 2.77484 15.9833 2.9952C15.9833 3.21557 15.8961 3.42698 15.7408 3.58327L13.8306 5.50177H7.15752V7.17004C7.15752 7.39126 7.06964 7.60343 6.91321 7.75986C6.75678 7.91629 6.54461 8.00417 6.32339 8.00417C6.10216 8.00417 5.89 7.91629 5.73357 7.75986C5.57714 7.60343 5.48925 7.39126 5.48925 7.17004V4.66764C5.48925 4.22519 5.66502 3.80086 5.97788 3.488C6.29074 3.17514 6.71507 2.99937 7.15752 2.99937ZM2.15272 7.17004V10.5066L0.24256 12.4167C0.0872017 12.573 0 12.7844 0 13.0048C0 13.2252 0.0872017 13.4366 0.24256 13.5929L2.39462 15.7533C2.47217 15.8314 2.56442 15.8935 2.66607 15.9359C2.76772 15.9782 2.87674 16 2.98686 16C3.09697 16 3.206 15.9782 3.30765 15.9359C3.40929 15.8935 3.50155 15.8314 3.57909 15.7533L7.15752 12.1748H10.4941C10.7153 12.1748 10.9274 12.087 11.0839 11.9305C11.2403 11.7741 11.3282 11.5619 11.3282 11.3407V10.5066H12.1623C12.3835 10.5066 12.5957 10.4187 12.7521 10.2623C12.9086 10.1058 12.9965 9.89366 12.9965 9.67244V8.8383H13.8306C14.0518 8.8383 14.264 8.75042 14.4204 8.59399C14.5768 8.43756 14.6647 8.2254 14.6647 8.00417V7.17004H8.82579V8.00417C8.82579 8.44662 8.65002 8.87095 8.33716 9.18381C8.0243 9.49667 7.59997 9.67244 7.15752 9.67244H5.48925C5.0468 9.67244 4.62247 9.49667 4.30961 9.18381C3.99675 8.87095 3.82099 8.44662 3.82099 8.00417V5.50177L2.15272 7.17004Z" fill="#969696"/>
</svg>
