<svg width="22" height="20" viewBox="0 0 22 20" fill="none" xmlns="http://www.w3.org/2000/svg">
<path d="M2.35294 3.52941C1.7289 3.52941 1.13042 3.77731 0.689161 4.21857C0.247898 4.65983 0 5.25831 0 5.88235V17.6471C0 18.2711 0.247898 18.8696 0.689161 19.3108C1.13042 19.7521 1.7289 20 2.35294 20H18.8235C19.4476 20 20.046 19.7521 20.4873 19.3108C20.9286 18.8696 21.1765 18.2711 21.1765 17.6471V5.88235C21.1765 5.25831 20.9286 4.65983 20.4873 4.21857C20.046 3.77731 19.4476 3.52941 18.8235 3.52941H2.35294ZM2.35294 16.4706L6.47059 11.1765L9.41176 14.7059L13.5294 9.41177L18.8235 16.4706H2.35294ZM17.6471 0C18.2711 0 18.8696 0.247898 19.3108 0.68916C19.7521 1.13042 20 1.7289 20 2.35294H1.17647C1.17647 1.7289 1.42437 1.13042 1.86563 0.68916C2.30689 0.247898 2.90537 0 3.52941 0H17.6471Z" fill="#B0B0B0"/>
</svg>
