<svg width="23" height="16" viewBox="0 0 23 16" fill="none" xmlns="http://www.w3.org/2000/svg">
<path d="M21.3127 0H1.18751C0.531668 0 0 0.531668 0 1.18751V1.31252C0 1.96836 0.531668 2.50003 1.18751 2.50003H21.3127C21.9686 2.50003 22.5003 1.96836 22.5003 1.31252V1.18751C22.5003 0.531668 21.9686 0 21.3127 0Z" fill="#B0B0B0"/>
<path d="M21.3127 6.5H1.18751C0.531668 6.5 0 7.03167 0 7.68751V7.81252C0 8.46836 0.531668 9.00003 1.18751 9.00003H21.3127C21.9686 9.00003 22.5003 8.46836 22.5003 7.81252V7.68751C22.5003 7.03167 21.9686 6.5 21.3127 6.5Z" fill="#B0B0B0"/>
<path d="M21.3127 13H1.18751C0.531668 13 0 13.5317 0 14.1875V14.3125C0 14.9684 0.531668 15.5 1.18751 15.5H21.3127C21.9686 15.5 22.5003 14.9684 22.5003 14.3125V14.1875C22.5003 13.5317 21.9686 13 21.3127 13Z" fill="#B0B0B0"/>
</svg>
