<svg width="15" height="16" viewBox="0 0 15 16" fill="none" xmlns="http://www.w3.org/2000/svg">
<path d="M10.4 7.2H4C3.56 7.2 3.2 7.56 3.2 8C3.2 8.44 3.56 8.8 4 8.8H10.4C10.84 8.8 11.2 8.44 11.2 8C11.2 7.56 10.84 7.2 10.4 7.2ZM12.8 1.6H12V0.8C12 0.36 11.64 0 11.2 0C10.76 0 10.4 0.36 10.4 0.8V1.6H4V0.8C4 0.36 3.64 0 3.2 0C2.76 0 2.4 0.36 2.4 0.8V1.6H1.6C1.17565 1.6 0.768687 1.76857 0.468629 2.06863C0.168571 2.36869 0 2.77565 0 3.2V14.4C0 14.8243 0.168571 15.2313 0.468629 15.5314C0.768687 15.8314 1.17565 16 1.6 16H12.8C13.68 16 14.4 15.28 14.4 14.4V3.2C14.4 2.32 13.68 1.6 12.8 1.6ZM12 14.4H2.4C1.96 14.4 1.6 14.04 1.6 13.6V5.6H12.8V13.6C12.8 14.04 12.44 14.4 12 14.4ZM8 10.4H4C3.56 10.4 3.2 10.76 3.2 11.2C3.2 11.64 3.56 12 4 12H8C8.44 12 8.8 11.64 8.8 11.2C8.8 10.76 8.44 10.4 8 10.4Z" fill="#969696"/>
</svg>
