<svg width="18" height="24" viewBox="0 0 18 24" fill="none" xmlns="http://www.w3.org/2000/svg">
<path d="M4.29423 18.8571H12.8657V20.5714H4.29423V18.8571ZM6.00851 22.2857H11.1514V24H6.00851V22.2857ZM8.57994 0C6.30666 0 4.12648 0.903059 2.51903 2.51051C0.911573 4.11797 0.00851472 6.29814 0.00851472 8.57143C-0.0494502 9.81715 0.189178 11.0588 0.704768 12.1943C1.22036 13.3298 1.99818 14.3267 2.97423 15.1029C3.83137 15.9 4.29423 16.3543 4.29423 17.1429H6.00851C6.00851 15.5657 5.05709 14.6829 4.13137 13.8343C3.33025 13.2208 2.69178 12.4202 2.27187 11.5027C1.85196 10.5852 1.66344 9.57872 1.7228 8.57143C1.7228 6.7528 2.44525 5.00866 3.73121 3.7227C5.01717 2.43673 6.76132 1.71429 8.57994 1.71429C10.3986 1.71429 12.1427 2.43673 13.4287 3.7227C14.7146 5.00866 15.4371 6.7528 15.4371 8.57143C15.4955 9.57946 15.3056 10.5864 14.8842 11.504C14.4628 12.4216 13.8226 13.2217 13.0199 13.8343C12.1028 14.6914 11.1514 15.5486 11.1514 17.1429H12.8657C12.8657 16.3543 13.3199 15.9 14.1857 15.0943C15.161 14.3194 15.9385 13.324 16.4541 12.19C16.9697 11.056 17.2087 9.81582 17.1514 8.57143C17.1514 7.44581 16.9297 6.33122 16.4989 5.29128C16.0682 4.25135 15.4368 3.30644 14.6409 2.51051C13.8449 1.71458 12.9 1.08322 11.8601 0.652461C10.8202 0.221707 9.70556 0 8.57994 0V0Z" fill="#B0B0B0"/>
</svg>
