<svg width="18" height="13" viewBox="0 0 18 13" fill="none" xmlns="http://www.w3.org/2000/svg">
<path d="M6.10714 0C5.51114 0.00236984 4.94021 0.240184 4.51877 0.661628C4.09733 1.08307 3.85951 1.65399 3.85714 2.25C3.85714 3.48557 4.87157 4.5 6.10714 4.5C7.34271 4.5 8.35714 3.48557 8.35714 2.25C8.35714 1.01443 7.34271 0 6.10714 0ZM11.8929 0C11.2968 0.00236984 10.7259 0.240184 10.3045 0.661628C9.88304 1.08307 9.64523 1.65399 9.64286 2.25C9.64286 3.48557 10.6573 4.5 11.8929 4.5C13.1284 4.5 14.1429 3.48557 14.1429 2.25C14.1429 1.01443 13.1284 0 11.8929 0ZM6.10714 1.28571C6.64714 1.28571 7.07143 1.71 7.07143 2.25C7.07143 2.79 6.64714 3.21429 6.10714 3.21429C5.56714 3.21429 5.14286 2.79 5.14286 2.25C5.14286 1.71 5.56714 1.28571 6.10714 1.28571ZM11.8929 1.28571C12.4329 1.28571 12.8571 1.71 12.8571 2.25C12.8571 2.79 12.4329 3.21429 11.8929 3.21429C11.3529 3.21429 10.9286 2.79 10.9286 2.25C10.9286 1.71 11.3529 1.28571 11.8929 1.28571ZM3.21429 3.85714C1.8 3.85714 0.642857 5.01429 0.642857 6.42857C0.642857 7.14407 0.9495 7.7895 1.4265 8.25686C0.988922 8.55214 0.630189 8.94995 0.381556 9.41562C0.132923 9.88128 0.00193354 10.4007 0 10.9286H1.28571C1.28571 9.85629 2.142 9 3.21429 9C4.28657 9 5.14286 9.85629 5.14286 10.9286H6.42857C6.42664 10.4007 6.29565 9.88128 6.04701 9.41562C5.79838 8.94995 5.43965 8.55214 5.00207 8.25686C5.47907 7.7895 5.78571 7.14472 5.78571 6.42857C5.78571 5.01429 4.62857 3.85714 3.21429 3.85714ZM6.42857 10.9286C6.02679 11.466 5.78571 12.1416 5.78571 12.8571H7.07143C7.07143 11.7849 7.92771 10.9286 9 10.9286C10.0723 10.9286 10.9286 11.7849 10.9286 12.8571H12.2143C12.2132 12.1618 11.9877 11.4855 11.5714 10.9286C11.3529 10.6374 11.0893 10.3886 10.7878 10.1854C11.2648 9.71807 11.5714 9.07329 11.5714 8.35714C11.5714 6.94286 10.4143 5.78571 9 5.78571C7.58571 5.78571 6.42857 6.94286 6.42857 8.35714C6.42857 9.07264 6.73521 9.71807 7.21221 10.1854C6.91128 10.3876 6.64639 10.6388 6.42857 10.9286ZM11.5714 10.9286H12.8571C12.8571 9.85629 13.7134 9 14.7857 9C15.858 9 16.7143 9.85629 16.7143 10.9286H18C17.9981 10.4007 17.8671 9.88128 17.6184 9.41562C17.3698 8.94995 17.0111 8.55214 16.5735 8.25686C17.0505 7.7895 17.3571 7.14472 17.3571 6.42857C17.3571 5.01429 16.2 3.85714 14.7857 3.85714C13.3714 3.85714 12.2143 5.01429 12.2143 6.42857C12.2143 7.14407 12.5209 7.7895 12.9979 8.25686C12.5604 8.55214 12.2016 8.94995 11.953 9.41562C11.7044 9.88128 11.5734 10.4007 11.5714 10.9286ZM3.21429 5.14286C3.93236 5.14286 4.5 5.7105 4.5 6.42857C4.5 7.14664 3.93236 7.71429 3.21429 7.71429C2.49621 7.71429 1.92857 7.14664 1.92857 6.42857C1.92857 5.7105 2.49621 5.14286 3.21429 5.14286ZM14.7857 5.14286C15.5038 5.14286 16.0714 5.7105 16.0714 6.42857C16.0714 7.14664 15.5038 7.71429 14.7857 7.71429C14.0676 7.71429 13.5 7.14664 13.5 6.42857C13.5 5.7105 14.0676 5.14286 14.7857 5.14286ZM9 7.07143C9.71807 7.07143 10.2857 7.63907 10.2857 8.35714C10.2857 9.07522 9.71807 9.64286 9 9.64286C8.28193 9.64286 7.71429 9.07522 7.71429 8.35714C7.71429 7.63907 8.28193 7.07143 9 7.07143Z" fill="#969696"/>
</svg>
