<svg width="16" height="16" viewBox="0 0 16 16" fill="none" xmlns="http://www.w3.org/2000/svg">
<path d="M9.21802 16H6.30602C6.12356 16 5.94658 15.9377 5.80442 15.8233C5.66226 15.709 5.56346 15.5494 5.52442 15.3712L5.19882 13.864C4.76446 13.6737 4.3526 13.4357 3.97082 13.1544L2.50122 13.6224C2.32727 13.6779 2.13958 13.6722 1.96931 13.6063C1.79905 13.5403 1.65646 13.4181 1.56522 13.26L0.106017 10.7392C0.0157331 10.5809 -0.0181572 10.3967 0.00989074 10.2166C0.0379386 10.0365 0.126264 9.87133 0.260417 9.748L1.40042 8.708C1.34857 8.23689 1.34857 7.76151 1.40042 7.2904L0.260417 6.2528C0.126074 6.12942 0.0376285 5.96406 0.00957603 5.78383C-0.0184764 5.60359 0.0155283 5.41918 0.106017 5.2608L1.56202 2.7384C1.65326 2.58025 1.79585 2.45807 1.96611 2.39215C2.13638 2.32623 2.32407 2.32053 2.49802 2.376L3.96762 2.844C4.16282 2.7 4.36602 2.5656 4.57562 2.444C4.77802 2.3304 4.98602 2.2272 5.19882 2.1352L5.52522 0.6296C5.56407 0.451358 5.66268 0.29175 5.80469 0.177239C5.94671 0.0627279 6.12359 0.000191973 6.30602 0H9.21802C9.40044 0.000191973 9.57733 0.0627279 9.71934 0.177239C9.86135 0.29175 9.95996 0.451358 9.99882 0.6296L10.3284 2.136C10.5524 2.2352 10.7716 2.3464 10.9836 2.4704C11.1812 2.5848 11.3724 2.7104 11.5564 2.8456L13.0268 2.3776C13.2007 2.32233 13.3882 2.32814 13.5583 2.39405C13.7284 2.45996 13.8708 2.58202 13.962 2.74L15.418 5.2624C15.6036 5.588 15.5396 6 15.2636 6.2536L14.1236 7.2936C14.1755 7.76471 14.1755 8.24009 14.1236 8.7112L15.2636 9.7512C15.5396 10.0056 15.6036 10.4168 15.418 10.7424L13.962 13.2648C13.8708 13.4229 13.7282 13.5451 13.5579 13.6111C13.3877 13.677 13.2 13.6827 13.026 13.6272L11.5564 13.1592C11.1749 13.4403 10.7633 13.678 10.3292 13.868L9.99882 15.3712C9.9598 15.5493 9.86112 15.7087 9.71913 15.8231C9.57713 15.9374 9.40033 15.9998 9.21802 16V16ZM7.75882 4.8C6.91012 4.8 6.09619 5.13714 5.49608 5.73726C4.89596 6.33737 4.55882 7.15131 4.55882 8C4.55882 8.84869 4.89596 9.66263 5.49608 10.2627C6.09619 10.8629 6.91012 11.2 7.75882 11.2C8.60751 11.2 9.42144 10.8629 10.0216 10.2627C10.6217 9.66263 10.9588 8.84869 10.9588 8C10.9588 7.15131 10.6217 6.33737 10.0216 5.73726C9.42144 5.13714 8.60751 4.8 7.75882 4.8V4.8Z" fill="#969696"/>
</svg>
